<svg width="39" height="39" viewBox="0 0 39 39" fill="none" xmlns="http://www.w3.org/2000/svg">
<g clip-path="url(#clip0_2342_5137)">
<path d="M35.5119 11.7333H26.4344V2.51917C26.4344 1.13106 25.3104 0 23.9182 0H13.9849C12.5984 0 11.4688 1.12534 11.4688 2.51917V7.47182H15.3428V3.87872H22.5546V22.5697H19.3709V26.4484H26.4287V15.612H34.1483V22.5697H30.2856V26.4484H35.5062C36.8926 26.4484 38.0223 25.3231 38.0223 23.9292V14.2524C38.0223 12.8643 36.8984 11.7333 35.5119 11.7333Z" fill="#247CFF"/>
<path d="M22.5597 34.1441H15.3479V15.6131H18.5887V11.7344H11.4738V22.5651H3.87406V15.6131H7.67396V11.7344H2.51614C1.12399 11.7344 0 12.8654 0 14.2535V23.9304C0 25.3185 1.12399 26.4495 2.51614 26.4495H11.4738V35.5094C11.4738 36.8975 12.5978 38.0286 13.99 38.0286H23.9233C25.3098 38.0286 26.4395 36.9032 26.4395 35.5094V30.2997H22.5654V34.1441H22.5597Z" fill="#247CFF"/>
</g>
<defs>
<clipPath id="clip0_2342_5137">
<rect width="38.0217" height="38.0217" fill="white"/>
</clipPath>
</defs>
</svg>
