<svg width="356" height="444" viewBox="0 0 356 444" fill="none" xmlns="http://www.w3.org/2000/svg">
<g opacity="0.06">
<path d="M-57.7495 306.363L48.0147 306.363L48.0147 413.719C48.0147 429.892 61.1106 443.07 77.3309 443.07L193.067 443.07C209.22 443.07 222.383 429.959 222.383 413.719L222.383 356.015L177.245 356.015L177.245 397.879L93.2188 397.879L93.2188 180.106L130.313 180.106L130.313 134.914L48.0812 134.914L48.0812 261.172L-41.8616 261.172L-41.8616 180.106L3.14301 180.106L3.14302 134.914L-57.683 134.914C-73.8368 134.914 -86.9992 148.026 -86.9992 164.265L-86.9993 277.012C-86.9993 293.185 -73.9033 306.363 -57.7495 306.363Z" fill="#247CFF"/>
<path d="M93.1515 45.2584L177.178 45.2584L177.178 261.168L139.419 261.168L139.419 306.36L222.316 306.36L222.316 180.168L310.862 180.168L310.862 261.168L266.589 261.168L266.589 306.36L326.684 306.36C342.904 306.36 356 293.181 356 277.008L356 164.261C356 148.088 342.904 134.91 326.684 134.91L222.316 134.91L222.316 29.3514C222.316 13.1782 209.22 2.58963e-05 192.999 2.44783e-05L77.2636 1.43603e-05C61.1098 1.29481e-05 47.9475 13.1116 47.9475 29.3514L47.9475 90.0509L93.0851 90.0509L93.0851 45.2584L93.1515 45.2584Z" fill="#247CFF"/>
</g>
</svg>
